<svg version="1.2" xmlns="http://www.w3.org/2000/svg" viewBox="0 0 24 24" width="24" height="24">
	<title>user-svg</title>
	<style>
		.s0 { fill: #ffffff } 
	</style>
	<path id="Layer" fill-rule="evenodd" class="s0" d="m2 12c0-5.5 4.5-10 10-10 5.5 0 10 4.5 10 10 0 5.5-4.5 10-10 10-5.5 0-10-4.5-10-10zm12.1-4.1c-0.5-0.6-1.3-0.9-2.1-0.9-0.8 0-1.6 0.3-2.1 0.9-0.6 0.5-0.9 1.3-0.9 2.1 0 0.8 0.3 1.6 0.9 2.1 0.5 0.6 1.3 0.9 2.1 0.9 0.8 0 1.6-0.3 2.1-0.9 0.6-0.5 0.9-1.3 0.9-2.1 0-0.8-0.3-1.6-0.9-2.1zm-6.9 10.4q0.7 0.5 1.4 0.9 0.8 0.4 1.7 0.6 0.8 0.2 1.7 0.2 0.9 0 1.7-0.2 0.9-0.2 1.7-0.6 0.7-0.4 1.4-0.9 0.7-0.6 1.2-1.3-0.5-0.7-1.2-1.3-0.7-0.5-1.4-0.9-0.8-0.4-1.7-0.6-0.8-0.2-1.7-0.2-0.9 0-1.7 0.2-0.9 0.2-1.7 0.6-0.7 0.4-1.4 0.9-0.7 0.6-1.2 1.3 0.5 0.7 1.2 1.3z"/>
</svg>